<svg xmlns="http://www.w3.org/2000/svg" xml:space="preserve" style="fill-rule:evenodd;clip-rule:evenodd;stroke-linejoin:round;stroke-miterlimit:2" viewBox="0 0 1276 139">
  <path d="M228.92 152.85c-5.16-2.93-11.07-4.39-17.75-4.39-7.62 0-14.38 1.64-20.29 4.92-4.17 2.31-7.67 5.26-10.53 8.82-2.63-3.94-5.94-7.07-9.95-9.34-5.15-2.93-11.07-4.39-17.74-4.39-6.67 0-13.06 1.64-18.45 4.92a33.37 33.37 0 0 0-6.16 4.82c-.06-2.56-.87-4.64-2.45-6.22-1.64-1.64-3.81-2.46-6.5-2.46s-4.72.82-6.42 2.46c-1.7 1.64-2.55 3.81-2.55 6.5v78.18c0 2.58.85 4.72 2.55 6.41 1.7 1.7 3.83 2.55 6.42 2.55s4.86-.85 6.5-2.55c1.64-1.7 2.46-3.84 2.46-6.41v-49.55c0-6.56 1.99-11.95 5.97-16.16 3.98-4.22 9.02-6.32 15.11-6.32s10.6 1.79 14.23 5.36c3.63 3.57 5.44 9.05 5.44 16.43v50.25c0 2.58.85 4.72 2.55 6.41 1.7 1.69 3.83 2.55 6.42 2.55s4.86-.85 6.5-2.55c1.64-1.7 2.46-3.84 2.46-6.41v-49.55c0-6.56 1.96-11.95 5.88-16.16 3.92-4.22 8.93-6.32 15.02-6.32s10.6 1.79 14.23 5.36c3.63 3.57 5.45 9.05 5.45 16.43v50.25c0 2.58.85 4.72 2.54 6.41 1.7 1.7 3.84 2.55 6.42 2.55s4.86-.85 6.5-2.55c1.64-1.7 2.46-3.84 2.46-6.41v-50.25c0-8.08-1.44-14.96-4.31-20.64-2.87-5.68-6.88-9.99-12.03-12.91l.02-.04ZM274.35 110.51c-3.16 0-5.88 1.14-8.17 3.43-2.28 2.28-3.42 5.01-3.42 8.17s1.14 5.89 3.42 8.17c2.29 2.28 5.01 3.43 8.17 3.43s5.89-1.14 8.17-3.43c2.29-2.28 3.43-5.01 3.43-8.17s-1.14-5.89-3.43-8.17c-2.28-2.28-5-3.43-8.17-3.43ZM274.35 149.34c-2.58 0-4.71.82-6.41 2.46-1.7 1.64-2.55 3.81-2.55 6.5v78.18c0 2.58.85 4.72 2.55 6.41 1.7 1.7 3.83 2.55 6.41 2.55s4.86-.85 6.5-2.55c1.64-1.7 2.46-3.83 2.46-6.41V158.3c0-2.69-.82-4.86-2.46-6.5-1.64-1.64-3.81-2.46-6.5-2.46ZM372.29 155.05c-7.26-4.27-15.46-6.41-24.6-6.41s-17.37 2.14-24.69 6.41c-7.32 4.28-13.12 10.1-17.39 17.48-4.28 7.38-6.42 15.7-6.42 24.95s1.96 17.54 5.89 24.86c3.92 7.32 9.28 13.12 16.08 17.39 6.79 4.28 14.46 6.41 23.02 6.41 8.56 0 16.22-2.14 23.02-6.41 4.17-2.63 7.8-5.83 10.89-9.61v6.54c0 2.58.85 4.72 2.55 6.41 1.7 1.7 3.83 2.55 6.41 2.55s4.71-.85 6.42-2.55c1.69-1.7 2.54-3.84 2.54-6.41v-39.18c0-9.25-2.14-17.57-6.41-24.95-4.28-7.38-10.04-13.21-17.31-17.48Zm-8.6 70.98c-4.69 2.87-10.01 4.3-15.99 4.3s-11.16-1.43-15.9-4.3-8.5-6.79-11.25-11.77c-2.75-4.98-4.13-10.57-4.13-16.78 0-6.21 1.38-11.97 4.13-16.95 2.75-4.98 6.5-8.9 11.25-11.77 4.74-2.87 10.04-4.3 15.9-4.3 5.86 0 11.3 1.44 15.99 4.3 4.69 2.87 8.38 6.79 11.07 11.77 2.69 4.98 4.04 10.63 4.04 16.95 0 6.32-1.35 11.8-4.04 16.78s-6.38 8.9-11.07 11.77ZM502.25 110.69c-1.64-1.64-3.81-2.46-6.5-2.46s-4.71.82-6.41 2.46c-1.7 1.64-2.55 3.81-2.55 6.5v47.44c-3.98-4.92-8.9-8.81-14.76-11.68-5.86-2.87-12.24-4.3-19.15-4.3-8.55 0-16.23 2.14-23.02 6.41-6.79 4.28-12.15 10.07-16.08 17.39-3.93 7.32-5.89 15.61-5.89 24.86s2.14 17.57 6.42 24.95c4.27 7.38 10.07 13.21 17.39 17.48 7.32 4.28 15.55 6.41 24.69 6.41s17.33-2.14 24.6-6.41c7.26-4.27 13.03-10.1 17.31-17.48 4.27-7.38 6.41-15.69 6.41-24.95v-80.12c0-2.69-.82-4.86-2.46-6.5Zm-18.8 103.48c-2.69 5.04-6.38 8.99-11.07 11.86-4.69 2.87-10.01 4.3-15.99 4.3s-11.16-1.43-15.9-4.3-8.5-6.82-11.25-11.86c-2.75-5.04-4.13-10.66-4.13-16.87 0-6.21 1.38-11.95 4.13-16.87 2.75-4.92 6.5-8.81 11.25-11.68 4.74-2.87 10.04-4.3 15.9-4.3 5.86 0 11.3 1.44 15.99 4.3 4.69 2.87 8.38 6.76 11.07 11.68 2.69 4.92 4.04 10.54 4.04 16.87 0 6.33-1.35 11.83-4.04 16.87Z" style="fill:#13d8a0;fill-rule:nonzero" transform="translate(-110.13 -108.22)"/>
  <path d="M591.66 153.29c-6.74-3.45-14.32-5.18-22.75-5.18-7.5 0-14.35 1.67-20.56 5.01-5.06 2.72-9.32 6.27-12.82 10.62V113.5c0-1.64-.47-2.93-1.41-3.86-.94-.94-2.23-1.41-3.86-1.41-1.52 0-2.79.47-3.78 1.41-1 .94-1.5 2.23-1.5 3.86v126.68c0 1.52.5 2.78 1.5 3.78.99 1 2.25 1.49 3.78 1.49 1.64 0 2.92-.5 3.86-1.49s1.41-2.25 1.41-3.78v-53.76c0-5.27 1.46-10.01 4.39-14.23 2.93-4.22 6.91-7.52 11.95-9.93 5.03-2.4 10.72-3.6 17.04-3.6 6.32 0 12.21 1.26 17.31 3.78 5.1 2.52 9.14 6.3 12.12 11.33 2.98 5.04 4.48 11.42 4.48 19.15v47.26c0 1.52.5 2.78 1.49 3.78s2.25 1.49 3.78 1.49c1.53 0 2.78-.5 3.78-1.49.99-.99 1.49-2.25 1.49-3.78v-47.26c0-9.72-1.93-17.89-5.8-24.51-3.86-6.62-9.17-11.65-15.9-15.11v-.01ZM695.27 154.52c-6.68-4.04-14.35-6.06-23.02-6.06s-16.58 2.11-23.37 6.32c-6.79 4.22-12.12 9.99-15.99 17.31-3.86 7.32-5.8 15.78-5.8 25.39 0 9.61 2.05 17.92 6.15 25.3 4.1 7.38 9.75 13.15 16.96 17.3 7.2 4.16 15.43 6.24 24.69 6.24 5.5 0 11.27-1.11 17.31-3.34 6.03-2.22 10.92-5.03 14.67-8.43 1.17-1.05 1.73-2.22 1.67-3.51-.06-1.29-.73-2.46-2.02-3.51-.94-.82-2.08-1.2-3.43-1.14-1.35.06-2.49.56-3.43 1.49-2.69 2.58-6.35 4.66-10.98 6.24-4.63 1.58-9.22 2.37-13.79 2.37-7.27 0-13.71-1.67-19.33-5.01-5.62-3.34-10.02-7.93-13.18-13.79-2.72-5.03-4.26-10.71-4.64-17.04h73.69c1.52 0 2.75-.44 3.69-1.32.94-.88 1.4-2.08 1.4-3.6 0-9.25-1.87-17.42-5.62-24.51-3.75-7.08-8.96-12.65-15.64-16.69l.01-.01Zm-53.15 22.58c2.98-5.86 7.08-10.45 12.3-13.79 5.21-3.34 11.15-5.01 17.83-5.01 7.03 0 13.15 1.67 18.36 5.01 5.21 3.34 9.23 7.94 12.04 13.79 2.07 4.32 3.31 9.13 3.73 14.41h-68.41c.58-5.3 1.96-10.11 4.15-14.41ZM799.08 154.7c-7.38-4.27-15.75-6.41-25.12-6.41-9.37 0-17.77 2.14-25.21 6.41-7.44 4.28-13.29 10.13-17.57 17.57-4.28 7.44-6.42 15.84-6.42 25.21 0 9.37 2.14 17.6 6.42 25.04 4.27 7.44 10.13 13.29 17.57 17.57 7.44 4.28 15.84 6.41 25.21 6.41 8.55 0 16.17-1.84 22.84-5.53 6.53-3.61 11.74-8.49 15.64-14.63v13.84c0 1.52.5 2.78 1.49 3.78s2.31 1.49 3.95 1.49c1.52 0 2.75-.5 3.69-1.49s1.41-2.25 1.41-3.78v-42.69c0-9.37-2.14-17.77-6.42-25.21-4.27-7.44-10.1-13.29-17.48-17.57v-.01Zm-5.36 76.78c-5.8 3.46-12.39 5.18-19.77 5.18-7.38 0-13.82-1.73-19.68-5.18-5.86-3.45-10.48-8.14-13.88-14.05-3.4-5.91-5.09-12.56-5.09-19.94 0-7.38 1.69-14.2 5.09-20.12 3.4-5.91 8.02-10.6 13.88-14.05 5.85-3.45 12.42-5.18 19.68-5.18s13.97 1.73 19.77 5.18c5.8 3.46 10.37 8.14 13.71 14.05 3.34 5.92 5.01 12.62 5.01 20.12 0 7.5-1.67 14.03-5.01 19.94-3.34 5.92-7.91 10.6-13.71 14.05ZM865.41 234.9h-4.4c-3.63 0-6.59-1.73-8.87-5.18-2.28-3.45-3.43-7.88-3.43-13.27V113.49c0-1.64-.47-2.93-1.4-3.86-.94-.94-2.23-1.41-3.87-1.41-1.52 0-2.78.47-3.78 1.41s-1.49 2.23-1.49 3.86v102.96c0 5.74.97 10.78 2.9 15.11s4.63 7.73 8.08 10.19c3.46 2.46 7.41 3.69 11.86 3.69h3.52c1.64 0 2.92-.5 3.86-1.49s1.41-2.25 1.41-3.78c0-1.64-.41-2.93-1.23-3.86-.82-.94-1.87-1.41-3.16-1.41ZM917.7 234.73h-3.87c-6.68 0-12.12-2.14-16.34-6.41-4.22-4.27-6.33-9.81-6.33-16.6v-49.37h23.19c1.4 0 2.55-.44 3.42-1.32.88-.88 1.32-2.02 1.32-3.43 0-1.41-.44-2.55-1.32-3.43-.88-.88-2.02-1.32-3.42-1.32h-23.19v-28.64c0-1.64-.5-2.96-1.49-3.95-1-.99-2.31-1.49-3.95-1.49-1.52 0-2.79.5-3.78 1.49-1 1-1.5 2.31-1.5 3.95v28.64h-13.7c-1.41 0-2.55.44-3.43 1.32-.88.88-1.32 2.02-1.32 3.43 0 1.41.44 2.55 1.32 3.43.88.88 2.02 1.32 3.43 1.32h13.7v49.37c0 6.44 1.41 12.21 4.22 17.3 2.81 5.09 6.73 9.08 11.77 11.95 5.04 2.87 10.78 4.36 17.22 4.48h4.04c1.64 0 2.96-.5 3.95-1.49.99-.99 1.49-2.25 1.49-3.78 0-1.64-.5-2.96-1.49-3.95-1-.99-2.31-1.49-3.95-1.49l.01-.01ZM1000.23 153.29c-6.74-3.45-14.32-5.18-22.75-5.18-7.5 0-14.35 1.67-20.56 5.01-5.06 2.72-9.32 6.27-12.82 10.62V113.5c0-1.64-.47-2.93-1.41-3.86-.94-.94-2.23-1.41-3.86-1.41-1.52 0-2.79.47-3.78 1.41-1 .94-1.5 2.23-1.5 3.86v126.68c0 1.52.5 2.78 1.5 3.78.99 1 2.25 1.49 3.78 1.49 1.64 0 2.92-.5 3.86-1.49s1.41-2.25 1.41-3.78v-53.76c0-5.27 1.46-10.01 4.39-14.23 2.93-4.22 6.91-7.52 11.95-9.93 5.03-2.4 10.72-3.6 17.04-3.6 6.32 0 12.21 1.26 17.31 3.78 5.1 2.52 9.14 6.3 12.12 11.33 2.98 5.04 4.48 11.42 4.48 19.15v47.26c0 1.52.5 2.78 1.49 3.78s2.25 1.49 3.78 1.49c1.53 0 2.78-.5 3.78-1.49.99-.99 1.49-2.25 1.49-3.78v-47.26c0-9.72-1.93-17.89-5.8-24.51-3.86-6.62-9.17-11.65-15.9-15.11v-.01ZM1101.37 152.77c-6.21-2.87-13.06-4.3-20.56-4.3-8.78 0-16.58 2.14-23.37 6.41-6.79 4.28-12.12 10.1-15.99 17.48-3.86 7.38-5.8 15.76-5.8 25.12 0 9.36 2.08 17.57 6.24 24.95 4.16 7.38 9.84 13.24 17.04 17.57 7.2 4.33 15.37 6.5 24.51 6.5 12.76 0 23.42-3.92 31.98-11.77 1.05-.94 1.55-2.08 1.49-3.43-.06-1.35-.67-2.55-1.84-3.6-.94-.94-2.05-1.35-3.34-1.23-1.29.12-2.46.65-3.52 1.58-3.16 2.93-6.88 5.09-11.15 6.5-4.28 1.41-8.82 2.11-13.62 2.11-7.38 0-13.85-1.73-19.42-5.18-5.56-3.45-9.93-8.14-13.09-14.05s-4.74-12.56-4.74-19.94c0-7.38 1.43-14.35 4.3-20.21 2.87-5.86 6.91-10.48 12.12-13.88 5.21-3.4 11.27-5.09 18.18-5.09 11.6 0 21.14 4.45 28.64 13.35.94 1.17 2.05 1.84 3.34 2.02 1.29.18 2.46-.15 3.52-.97 1.29-.82 2.05-1.87 2.28-3.16.23-1.29-.12-2.52-1.05-3.69-4.57-5.86-9.96-10.22-16.17-13.09h.02ZM1199.91 154.7c-7.38-4.27-15.75-6.41-25.12-6.41-9.37 0-17.77 2.14-25.21 6.41-7.44 4.28-13.29 10.13-17.57 17.57-4.28 7.44-6.42 15.84-6.42 25.21 0 9.37 2.14 17.6 6.42 25.04 4.27 7.44 10.13 13.29 17.57 17.57 7.44 4.28 15.84 6.41 25.21 6.41 8.55 0 16.17-1.84 22.84-5.53 6.53-3.61 11.74-8.49 15.64-14.63v13.84c0 1.52.5 2.78 1.49 3.78s2.31 1.49 3.95 1.49c1.52 0 2.75-.5 3.69-1.49s1.41-2.25 1.41-3.78v-42.69c0-9.37-2.14-17.77-6.42-25.21-4.27-7.44-10.1-13.29-17.48-17.57v-.01Zm-5.36 76.78c-5.8 3.46-12.39 5.18-19.77 5.18-7.38 0-13.82-1.73-19.68-5.18-5.86-3.45-10.48-8.14-13.88-14.05-3.4-5.91-5.09-12.56-5.09-19.94 0-7.38 1.69-14.2 5.09-20.12 3.4-5.91 8.02-10.6 13.88-14.05 5.86-3.45 12.42-5.18 19.68-5.18s13.97 1.73 19.77 5.18c5.8 3.46 10.37 8.14 13.71 14.05 3.34 5.92 5.01 12.62 5.01 20.12 0 7.5-1.67 14.03-5.01 19.94-3.34 5.92-7.91 10.6-13.71 14.05ZM1292.38 149.87c-2.46-1.05-5.92-1.58-10.37-1.58-6.56 0-12.54 1.64-17.92 4.92-4.94 3.01-9.03 7.08-12.3 12.21v-10.8c0-1.64-.47-2.93-1.41-3.86-.94-.94-2.23-1.41-3.86-1.41-1.52 0-2.79.47-3.78 1.41-1 .94-1.5 2.23-1.5 3.86v85.56c0 1.52.5 2.78 1.5 3.78.99 1 2.25 1.49 3.78 1.49 1.64 0 2.92-.5 3.86-1.49s1.41-2.25 1.41-3.78v-53.41c0-5.5 1.29-10.39 3.86-14.67 2.58-4.27 6.15-7.64 10.72-10.1s9.78-3.69 15.64-3.69c2.22 0 4.25.15 6.06.44 1.81.29 3.37.26 4.66-.09s2.11-1.41 2.46-3.16c.58-2.69-.35-4.57-2.81-5.62v-.01ZM1379.59 171.21c-3.75-7.08-8.96-12.65-15.64-16.69-6.68-4.04-14.35-6.06-23.02-6.06s-16.58 2.11-23.37 6.32c-6.79 4.22-12.12 9.99-15.99 17.31-3.86 7.32-5.8 15.78-5.8 25.39 0 9.61 2.05 17.92 6.15 25.3 4.1 7.38 9.75 13.15 16.96 17.3 7.2 4.16 15.43 6.24 24.69 6.24 5.5 0 11.27-1.11 17.31-3.34 6.03-2.22 10.92-5.03 14.67-8.43 1.17-1.05 1.73-2.22 1.67-3.51-.06-1.29-.73-2.46-2.02-3.51-.94-.82-2.08-1.2-3.43-1.14-1.35.06-2.49.56-3.43 1.49-2.69 2.58-6.35 4.66-10.98 6.24-4.63 1.58-9.22 2.37-13.79 2.37-7.27 0-13.71-1.67-19.33-5.01-5.62-3.34-10.02-7.93-13.18-13.79-2.72-5.03-4.26-10.71-4.64-17.04h73.69c1.52 0 2.75-.44 3.69-1.32.94-.88 1.4-2.08 1.4-3.6 0-9.25-1.87-17.42-5.62-24.51l.01-.01Zm-68.78 5.89c2.98-5.86 7.08-10.45 12.3-13.79 5.21-3.34 11.15-5.01 17.83-5.01 7.03 0 13.15 1.67 18.36 5.01 5.21 3.34 9.23 7.94 12.04 13.79 2.07 4.32 3.31 9.13 3.73 14.41h-68.41c.58-5.3 1.96-10.11 4.15-14.41Z" style="fill:#fff;fill-rule:nonzero" transform="translate(-110.13 -108.22)"/>
</svg>
